<?xml version="1.0" encoding="UTF-8"?>
<svg id="Layer_1" data-name="Layer 1" xmlns="http://www.w3.org/2000/svg" viewBox="0 0 190.85 185.28">
  <defs>
    <style>
      .cls-1 {
        fill: #725858;
      }

      .cls-1, .cls-2, .cls-3, .cls-4, .cls-5, .cls-6, .cls-7, .cls-8 {
        stroke-width: 0px;
      }

      .cls-2 {
        fill: #00a6fb;
      }

      .cls-4 {
        fill: #006494;
      }

      .cls-5 {
        fill: #ffc9b0;
      }

      .cls-6 {
        fill: #fff;
      }

      .cls-7 {
        fill: #dfeaef;
      }

      .cls-8 {
        fill: #051923;
      }
    </style>
  </defs>
  <g id="_249_completed_task_outline" data-name=" 249 completed task outline">
    <path class="cls-4" d="M175.2,32.87c-3.91-2.58-9.18-1.5-11.76,2.41,0,0,0,0,0,.01l-51.28,66.44h-33.45L27.43,35.29c-2.58-3.92-7.85-5.01-11.78-2.43-3.92,2.58-5.01,7.85-2.42,11.78l50.77,77.11c.76,1.17,2.91,47.6,2.91,47.6h57s2.14-46.43,2.91-47.6l50.77-77.11c2.59-3.91,1.52-9.18-2.39-11.77Z"/>
    <path class="cls-8" d="M123.95,170.35h-57c-.55,0-1-.45-1-1-.82-17.81-2.24-44.87-2.81-47.19L12.43,45.16c-2.89-4.38-1.67-10.27,2.71-13.16,4.38-2.89,10.27-1.67,13.16,2.71l50.93,66h32.47l51-66.05c2.89-4.3,8.7-5.49,13.05-2.67h0c4.38,2.89,5.6,8.78,2.71,13.16,0,0,0,0,0,0l-50.7,77c-.57,2.32-2,29.38-2.82,47.19,0,.55-.44,1-.99,1.01h0ZM67.86,168.35h55.13c1-21.11,2.29-46,3-47.15l50.8-77.11c2.27-3.46,1.31-8.11-2.14-10.39h0c-3.46-2.28-8.11-1.32-10.39,2.14,0,0,0,0,0,0l-51.32,66.51c-.19.24-.48.38-.79.38h-33.45c-.31,0-.6-.14-.79-.38L26.64,35.9c-2.14-3.55-6.76-4.69-10.31-2.55-3.55,2.14-4.69,6.76-2.55,10.31.09.15.18.29.28.43l50.77,77.11c.75,1.14,2.05,26.04,3.03,47.15h0Z"/>
    <rect class="cls-8" x="90" y="109.11" width="10.85" height="46.46"/>
    <path class="cls-8" d="M100.85,156.58h-10.85c-.55,0-1-.45-1-1v-46.47c0-.55.45-1,1-1h10.85c.55,0,1,.45,1,1v46.47c0,.55-.45,1-1,1ZM91,154.58h8.85v-44.47h-8.85v44.47Z"/>
    <path class="cls-5" d="M169.42,24.99v-9.76c0-2.27-1.84-4.11-4.11-4.11s-4.11,1.84-4.11,4.11v12.32h0c-.93,1.51-1.47,3.91-1.47,7.72,0,10.33,4.82,12.11,9.76,12.11s11.06-3.84,11.66-6.76c1.17-5.31-7.13-15.21-11.73-15.63Z"/>
    <path class="cls-8" d="M169.53,48.38c-4.62,0-10.76-1.35-10.76-13.11,0-3.55.47-6.15,1.43-7.93v-12.11c0-2.82,2.29-5.11,5.11-5.11s5.11,2.29,5.11,5.11v8.92c3,.81,6.22,4,8.25,6.78,1.3,1.76,4.25,6.23,3.5,9.89s-7.46,7.56-12.64,7.56ZM162.2,27.38c.06.25.03.52-.1.74-.9,1.46-1.33,3.81-1.33,7.2,0,9.79,4.43,11.11,8.76,11.11,4.78,0,10.23-3.77,10.68-6,.4-2-.81-5.14-3.15-8.3-2.5-3.38-5.75-6-7.73-6.14-.52-.05-.91-.48-.91-1v-9.76c0-1.72-1.39-3.11-3.11-3.11s-3.11,1.39-3.11,3.11v12.15Z"/>
    <rect class="cls-5" x="163.53" y="22.78" width="17.95" height="4.77" rx="2.38" ry="2.38"/>
    <path class="cls-8" d="M179.1,28.55h-13.18c-1.87.1-3.47-1.33-3.57-3.2-.1-1.87,1.33-3.47,3.2-3.57.12,0,.25,0,.37,0h13.18c1.87-.1,3.47,1.33,3.57,3.2.1,1.87-1.33,3.47-3.2,3.57-.12,0-.25,0-.37,0ZM165.92,23.78c-.76-.07-1.44.5-1.5,1.27-.07.76.5,1.44,1.27,1.5.08,0,.16,0,.24,0h13.18c.76.07,1.44-.5,1.5-1.27.07-.76-.5-1.44-1.27-1.5-.08,0-.16,0-.24,0h-13.18Z"/>
    <rect class="cls-5" x="163.53" y="27.55" width="17.95" height="4.77" rx="2.38" ry="2.38"/>
    <path class="cls-8" d="M179.1,33.31h-13.18c-1.87,0-3.38-1.51-3.38-3.38s1.51-3.38,3.38-3.38h13.18c1.87,0,3.38,1.51,3.38,3.38s-1.51,3.38-3.38,3.38ZM165.92,28.55c-.76,0-1.38.62-1.38,1.38s.62,1.38,1.38,1.38h13.18c.76,0,1.38-.62,1.38-1.38s-.62-1.38-1.38-1.38h-13.18Z"/>
    <rect class="cls-5" x="163.53" y="32.31" width="17.95" height="4.77" rx="2.38" ry="2.38"/>
    <path class="cls-8" d="M179.1,38.08h-13.18c-1.87.1-3.47-1.33-3.57-3.2-.1-1.87,1.33-3.47,3.2-3.57.12,0,.25,0,.37,0h13.18c1.87-.1,3.47,1.33,3.57,3.2.1,1.87-1.33,3.47-3.2,3.57-.12,0-.25,0-.37,0ZM165.92,33.31c-.76-.07-1.44.5-1.5,1.27-.07.76.5,1.44,1.27,1.5.08,0,.16,0,.24,0h13.18c.76.07,1.44-.5,1.5-1.27.07-.76-.5-1.44-1.27-1.5-.08,0-.16,0-.24,0h-13.18Z"/>
    <path class="cls-8" d="M179.86,43.85c-.27,0-.52-.11-.71-.3-.39-.39-.39-1.02,0-1.41.76-.69,1.23-1.65,1.33-2.67,0-.77-.62-1.39-1.39-1.39h-13.17c-.76-.07-1.44.5-1.5,1.27-.07.76.5,1.44,1.27,1.5.08,0,.16,0,.24,0h7.69c.55,0,1,.45,1,1s-.45,1-1,1h-7.69c-1.87.1-3.47-1.33-3.57-3.2-.1-1.87,1.33-3.47,3.2-3.57.12,0,.25,0,.37,0h13.18c1.87,0,3.39,1.52,3.39,3.39h0c-.08,1.56-.77,3.03-1.92,4.09-.19.19-.44.29-.71.29Z"/>
    <path class="cls-5" d="M21.43,24.99v-9.76c0-2.27,1.84-4.11,4.11-4.11s4.11,1.84,4.11,4.11v12.32h0c.93,1.51,1.48,3.91,1.48,7.72,0,10.33-4.83,12.11-9.76,12.11s-11.05-3.84-11.7-6.76c-1.09-5.31,7.16-15.21,11.76-15.63Z"/>
    <path class="cls-8" d="M21.32,48.38c-5.18,0-11.92-4-12.64-7.56s2.19-8.13,3.5-9.89c2-2.74,5.29-6,8.24-6.78v-8.92c0-2.82,2.29-5.11,5.12-5.1,2.82,0,5.1,2.29,5.1,5.1v12.11c1,1.78,1.44,4.38,1.44,7.93.01,11.72-6.13,13.11-10.76,13.11ZM25.53,12.12c-1.72,0-3.11,1.39-3.11,3.11v9.76c0,.52-.39.95-.91,1-2,.18-5.22,2.76-7.73,6.14-2.34,3.16-3.55,6.34-3.14,8.3.45,2.19,5.89,6,10.68,6,4.33,0,8.76-1.32,8.76-11.11,0-3.39-.44-5.74-1.33-7.2-.15-.24-.19-.53-.11-.8v-12c.05-1.72-1.3-3.15-3.02-3.2-.03,0-.05,0-.08,0h0ZM21.43,24.99h0Z"/>
    <rect class="cls-5" x="9.37" y="22.77" width="17.95" height="4.77" rx="2.38" ry="2.38"/>
    <path class="cls-8" d="M24.94,28.55h-13.19c-1.87-.1-3.3-1.7-3.2-3.57.09-1.73,1.47-3.11,3.2-3.2h13.19c1.87.1,3.3,1.7,3.2,3.57-.09,1.73-1.47,3.11-3.2,3.2ZM11.75,23.78c-.76.07-1.33.74-1.27,1.5.06.67.59,1.21,1.27,1.27h13.19c.76-.07,1.33-.74,1.27-1.5-.06-.67-.59-1.21-1.27-1.27h-13.19Z"/>
    <rect class="cls-5" x="9.37" y="27.54" width="17.95" height="4.77" rx="2.38" ry="2.38"/>
    <path class="cls-8" d="M24.94,33.31h-13.19c-1.87,0-3.38-1.51-3.38-3.38s1.51-3.38,3.38-3.38h13.19c1.87,0,3.38,1.51,3.38,3.38s-1.51,3.38-3.38,3.38ZM11.75,28.55c-.76,0-1.38.62-1.38,1.38s.62,1.38,1.38,1.38h13.19c.76,0,1.38-.62,1.38-1.38s-.62-1.38-1.38-1.38h-13.19Z"/>
    <rect class="cls-5" x="9.37" y="32.32" width="17.95" height="4.77" rx="2.38" ry="2.38"/>
    <path class="cls-8" d="M24.94,38.08h-13.19c-1.87-.1-3.3-1.7-3.2-3.57.09-1.73,1.47-3.11,3.2-3.2h13.19c1.87.1,3.3,1.7,3.2,3.57-.09,1.73-1.47,3.11-3.2,3.2ZM11.75,33.31c-.76.07-1.33.74-1.27,1.5.06.67.59,1.21,1.27,1.27h13.19c.76-.07,1.33-.74,1.27-1.5-.06-.67-.59-1.21-1.27-1.27h-13.19Z"/>
    <path class="cls-8" d="M10.99,43.85c-.26,0-.51-.11-.7-.29-1.15-1.06-1.84-2.53-1.92-4.09,0-1.87,1.5-3.38,3.37-3.39,0,0,0,0,.01,0h13.19c1.87.1,3.3,1.7,3.2,3.57-.09,1.73-1.47,3.11-3.2,3.2h-7.69c-.55,0-1-.45-1-1s.45-1,1-1h7.69c.76-.07,1.33-.74,1.27-1.5-.06-.67-.59-1.21-1.27-1.27h-13.19c-.76,0-1.38.62-1.38,1.38,0,0,0,0,0,.01.1,1.02.57,1.98,1.33,2.67.39.39.39,1.02,0,1.41-.19.19-.44.3-.71.3Z"/>
    <path class="cls-7" d="M129.71,177.16H61.14l-9.76-44.62c-.55-2.51,1.04-5,3.55-5.55.33-.07.67-.11,1.01-.11h79c2.57,0,4.66,2.09,4.66,4.66,0,.34-.04.67-.11,1l-9.78,44.62Z"/>
    <path class="cls-8" d="M129.71,178.16H61.14c-.48.01-.9-.32-1-.79l-9.76-44.62c-.67-3.05,1.27-6.07,4.32-6.74.4-.09.81-.13,1.22-.13h79c3.13,0,5.66,2.53,5.66,5.66,0,.41-.04.81-.13,1.21l-9.76,44.62c-.1.46-.51.79-.98.79ZM61.94,176.16h67l9.59-43.83c.44-1.97-.81-3.93-2.78-4.36-.26-.06-.53-.09-.8-.09H55.95c-2.02-.01-3.66,1.62-3.67,3.63,0,.28.03.55.09.82l9.57,43.83Z"/>
    <rect class="cls-7" x="60.82" y="177.16" width="69.62" height="7.12"/>
    <path class="cls-8" d="M130.44,185.28H60.82c-.55,0-1-.45-1-1v-7.12c0-.55.45-1,1-1h69.62c.55,0,1,.45,1,1v7.12c0,.55-.45,1-1,1ZM61.82,183.28h67.62v-5.12H61.82v5.12Z"/>
    <path class="cls-5" d="M89.99,107.69h11v6.3c0,2.57-2.09,4.66-4.66,4.66h-1.66c-2.57,0-4.66-2.09-4.66-4.66h0v-6.3h-.02Z"/>
    <path class="cls-8" d="M96.32,119.67h-1.66c-3.13,0-5.66-2.54-5.66-5.67v-6.31c0-.55.45-1,1-1h11c.55,0,1,.45,1,1v6.3c0,3.13-2.53,5.67-5.66,5.68,0,0-.01,0-.02,0ZM91,108.67v5.32c0,2.02,1.64,3.66,3.66,3.67h1.66c2.02-.01,3.65-1.65,3.66-3.67v-5.3l-8.98-.02Z"/>
    <path class="cls-1" d="M59.39,79.11c-4-2.61-4.39-8.93-5.11-13.3-2.47-14.95-.95-30.29,4.41-44.46.37,4.42,1.25,8.78,2.63,13-1.67-5.1,4.42-14,6.64-18.16,3-5.67,6-9.94,11.08-14.19l6.28,14.39c2.97-4.75,5.13-9.95,6.41-15.4-.33,1.41,16.63,15.69,17.13,15.62.86-.11,2-6,1.91-8.1,7,7.63,14.59,16.67,13.47,27,2.48-2.7,4.17-6.01,4.9-9.6,4.68,11.33,6.18,23.71,4.36,35.83-.62,4.15-1.45,13-4.76,16-3.08,2.77-10.11.76-13.89.88l-33.89,1.06c-5.86.18-14.53,2.15-20.15.11-.5-.17-.97-.4-1.42-.68Z"/>
    <path class="cls-8" d="M67.32,81.73c-2.31.06-4.62-.28-6.82-1-.57-.21-1.11-.48-1.62-.81h0c-3.86-2.52-4.65-7.9-5.29-12.22-.09-.61-.17-1.19-.27-1.75-2.52-15.13-.97-30.66,4.47-45,.2-.52.78-.77,1.29-.58.36.14.6.47.64.85.18,2.38.52,4.74,1,7.08,1.3-3.58,2.97-7,5-10.22.53-.92,1-1.75,1.38-2.44,2.73-5.56,6.59-10.49,11.32-14.48.25-.2.59-.26.9-.17.3.07.55.28.68.57l5.53,12.65c2.4-4.2,4.17-8.72,5.27-13.43h0c.12-.54.66-.87,1.2-.75,0,0,0,0,0,0,.42.1.73.46.77.89,1,1.84,12.64,12,15.88,14.36.69-2.18,1.08-4.44,1.17-6.72-.01-.55.42-1.01.97-1.03.29,0,.56.11.76.32,6.54,7.08,13.39,15.32,13.83,24.69,1.38-2.06,2.34-4.38,2.83-6.81.09-.43.44-.76.88-.8.43-.03.83.21,1,.61,4.77,11.49,6.3,24.06,4.43,36.36-.07.48-.15,1-.23,1.62-.66,4.82-1.65,12.11-4.85,15-2.52,2.27-6.88,1.81-10.73,1.4-1.26-.17-2.52-.25-3.79-.26l-33.9,1.06c-1.65,0-3.55.25-5.55.46-2.71.32-5.43.5-8.15.55ZM58.25,25.73c-4.19,12.9-5.22,26.62-3,40,.09.56.18,1.16.27,1.78.58,3.93,1.29,8.81,4.4,10.84h0c.38.24.79.44,1.21.6,3.78,1.37,9.25.8,14.08.3,2-.22,4-.42,5.69-.47l33.9-1.06c1.36,0,2.72.09,4.07.27,3.26.35,7.32.78,9.18-.9,2.66-2.38,3.63-9.52,4.21-13.77.08-.6.16-1.16.23-1.64,1.69-10.97.6-22.18-3.17-32.62-.95,2.64-2.42,5.07-4.32,7.14-.29.32-.76.41-1.15.23-.39-.18-.62-.58-.58-1,1-9.11-5.25-17.39-11.7-24.55-.32,2.64-1,6.56-2.56,6.75s-14.89-12.17-16.84-14.24c-1.34,4.78-3.36,9.34-6,13.55-.2.32-.55.5-.92.47-.37-.03-.69-.26-.84-.6l-5.77-13.18c-4.06,3.68-7.38,8.09-9.81,13-.38.71-.87,1.56-1.42,2.5-2.53,4.39-6.39,11.05-5.09,14.86h0c.15.53-.16,1.08-.69,1.24-.5.14-1.03-.13-1.21-.62h0c-.97-2.91-1.7-5.89-2.2-8.91l.03.03Z"/>
    <ellipse class="cls-5" cx="66.96" cy="79.16" rx="10.67" ry="9.19"/>
    <path class="cls-8" d="M66.96,89.36c-6.44,0-11.67-4.58-11.67-10.2s5.23-10.17,11.67-10.17,11.66,4.57,11.66,10.19-5.23,10.18-11.66,10.18ZM66.96,70.97c-5.33,0-9.67,3.68-9.67,8.19s4.34,8.2,9.67,8.2,9.66-3.68,9.66-8.2-4.3-8.17-9.66-8.17v-.02Z"/>
    <ellipse class="cls-5" cx="124" cy="79.16" rx="10.67" ry="9.19"/>
    <path class="cls-8" d="M124,89.36c-6.44,0-11.67-4.58-11.67-10.2s5.23-10.17,11.67-10.17,11.66,4.57,11.66,10.19-5.23,10.18-11.66,10.18ZM124,70.97c-5.34,0-9.67,3.68-9.67,8.19s4.33,8.2,9.67,8.2,9.66-3.68,9.66-8.2-4.34-8.17-9.66-8.17v-.02Z"/>
    <circle class="cls-8" cx="80.58" cy="72.27" r="2.98"/>
    <circle class="cls-8" cx="111.31" cy="72.27" r="2.98"/>
    <path class="cls-3" d="M107.21,86.65c-.19,6.48-5.6,11.58-12.08,11.39-6.22-.18-11.21-5.18-11.39-11.39h23.47Z"/>
    <path class="cls-8" d="M95.48,99.38c-7.03,0-12.73-5.7-12.74-12.73,0-.55.45-1,1-1h23.47c.55,0,1,.45,1,1,0,7.03-5.7,12.72-12.73,12.73ZM84.78,87.65c.54,5.91,5.77,10.26,11.68,9.71,5.16-.47,9.24-4.56,9.71-9.71h-21.39Z"/>
    <path class="cls-8" d="M95.32,83.28c-.97,0-1.95-.08-2.91-.24-.54-.1-.9-.61-.81-1.15.09-.54.61-.91,1.15-.82,0,0,0,0,0,0,1.43.25,2.9.27,4.34.06.13-.91-1-4-2.51-6.95-.25-.49-.04-1.09.45-1.34.48-.24,1.06-.06,1.32.41,1.05,2,3.4,6.89,2.53,8.82-.2.49-.62.87-1.13,1-.8.17-1.62.24-2.44.21Z"/>
    <path class="cls-8" d="M72.5,63.48c-1.1.06-2.05-.79-2.1-1.89-.06-1.1.79-2.05,1.89-2.11h0l14.13-1.49c1.1-.12,2.09.69,2.21,1.79.12,1.1-.69,2.09-1.79,2.21l-14.13,1.48h-.21Z"/>
    <path class="cls-8" d="M121,64.8c-.13.01-.25.01-.38,0l-14-2.64c-1.09-.21-1.8-1.25-1.59-2.34.21-1.09,1.25-1.8,2.34-1.59h0l14,2.64c1.1.1,1.92,1.08,1.82,2.18s-1.08,1.92-2.18,1.82v-.07Z"/>
    <path class="cls-5" d="M95.48,107.69h0c-16.26,0-29.44-13.19-29.45-29.45v-29.44c7.49-6.02,16.48-9.89,26-11.21,26.29,9.79,32.89,11.21,32.89,11.21v29.44c0,16.26-13.18,29.44-29.44,29.45Z"/>
    <path class="cls-8" d="M95.48,108.69c-16.81-.02-30.43-13.64-30.45-30.45v-29.44c0-.28.12-.55.33-.74.41-.37,10.21-9.07,26.54-11.46.16-.04.34-.04.5,0,25.83,9.63,32.66,11.16,32.73,11.17.47.1.8.52.79,1v29.44c0,16.82-13.62,30.46-30.44,30.48ZM67.03,49.26v29c-.29,15.71,12.2,28.68,27.91,28.98,15.71.29,28.68-12.2,28.98-27.91,0-.36,0-.71,0-1.07v-28.68c-2.38-.62-10.63-3-32-11-9.08,1.36-17.65,5.04-24.89,10.68Z"/>
    <path class="cls-8" d="M97.67,80.57c-.88,0-1.76-.12-2.61-.36-.52-.18-.8-.75-.62-1.27.17-.48.67-.76,1.17-.65.18,0,4.51,1.23,5.46-1.61.77-2.33-3.53-7.59-6.42-10.36-.4-.38-.42-1.01-.04-1.42.38-.4,1.01-.42,1.42-.03h0c.86.82,8.36,8.16,6.93,12.44-.84,2.54-3.19,3.26-5.29,3.26Z"/>
    <circle class="cls-8" cx="81.56" cy="62.36" r="2.36"/>
    <circle class="cls-8" cx="111.31" cy="62.36" r="2.36"/>
    <path class="cls-8" d="M72.51,54.07c-1.1,0-2-.9-1.99-2.01,0-.63.3-1.23.81-1.6.36-.26,9-6.36,17.56-1.71.97.52,1.33,1.74.81,2.71-.52.97-1.74,1.33-2.71.81-6.38-3.45-13.25,1.38-13.32,1.43-.34.24-.74.37-1.16.37Z"/>
    <path class="cls-8" d="M116.52,54.08c-.42,0-.82-.14-1.16-.38-.12-.08-7-4.87-13.32-1.43-.97.52-2.19.16-2.71-.81-.52-.97-.16-2.19.81-2.71,8.61-4.65,17.2,1.45,17.56,1.71.89.65,1.09,1.9.45,2.79-.38.52-.98.83-1.63.83h0Z"/>
    <path class="cls-8" d="M103.22,84.79h-12.17s1.55,18.51,6.09,17,6.08-17,6.08-17Z"/>
    <path class="cls-8" d="M96.61,102.85c-.52,0-1.03-.16-1.46-.45-3.65-2.4-4.88-15-5.09-17.52-.02-.28.07-.55.26-.76.19-.21.45-.33.73-.33h12.17c.28,0,.55.12.74.33.19.21.28.49.25.77-1.53,15.29-5.89,17.52-6.75,17.81-.27.1-.56.15-.85.15ZM92.15,85.79c.55,5.49,2,13.58,4.09,14.93.16.13.38.17.57.09,2.69-.91,4.59-9.27,5.29-15l-9.95-.02ZM103.22,85.79h0Z"/>
    <path class="cls-8" d="M189.85,185.28H1c-.55,0-1-.45-1-1s.45-1,1-1h188.85c.55,0,1,.45,1,1s-.45,1-1,1Z"/>
    <ellipse class="cls-2" cx="96.38" cy="155.7" rx="7.04" ry="5.31"/>
    <path class="cls-8" d="M96.38,161.99c-4.44,0-8-2.83-8-6.3s3.6-6.31,8-6.31,8,2.83,8,6.31-3.57,6.3-8,6.3ZM96.38,151.38c-3.33,0-6,1.93-6,4.31s2.71,4.3,6,4.3,6-1.93,6-4.3-2.67-4.3-6-4.3h0Z"/>
    <path class="cls-8" d="M96.38,151.39h-.17c-.54-.09-.91-.61-.82-1.15.09-.51.92-4.92,4-5.28.55-.06,1.05.33,1.11.89.06.55-.33,1.05-.88,1.11-1.24.15-2,2.51-2.23,3.63-.1.48-.52.81-1.01.8Z"/>
    <path class="cls-2" d="M27.32,155.58h20.07v20.27c0,4.45-3.6,8.05-8.05,8.05h-4c-4.45,0-8.05-3.6-8.05-8.05h0v-20.27h.03Z"/>
    <path class="cls-8" d="M39.32,184.9h-4c-4.98,0-9.02-4.02-9.05-9v-20.32c0-.55.45-1,1-1h20.07c.55,0,1,.45,1,1v20.27c-.01,4.98-4.04,9.02-9.02,9.05ZM28.32,156.58v19.27c.03,3.87,3.18,7,7.05,7h4c3.88,0,7.03-3.12,7.06-7v-19.27h-18.11Z"/>
    <path class="cls-8" d="M27.32,175.1h-.21c-4.75-.16-8.47-4.15-8.31-8.9.15-4.53,3.79-8.16,8.31-8.31h.21c.55,0,1,.45,1,1v15.21c0,.55-.45,1-1,1ZM26.32,159.99c-3.62.42-6.21,3.7-5.79,7.32.36,3.04,2.75,5.43,5.79,5.79v-13.11Z"/>
    <polygon class="cls-6" points="183.08 161 183.08 141.91 144.65 141.91 144.65 161 139.58 161 139.58 172.74 143.96 172.74 143.96 184.28 182.39 184.28 182.39 172.55 178.02 172.55 178.02 161 183.08 161"/>
    <path class="cls-8" d="M182.39,185.28h-38.43c-.55,0-1-.45-1-1v-10.54h-3.38c-.55,0-1-.45-1-1v-11.75c0-.55.45-1,1-1h4.07v-18.08c0-.55.45-1,1-1h38.43c.55,0,1,.45,1,1v19.08c0,.55-.45,1-1,1h-4.06v9.55h3.37c.55,0,1,.45,1,1v11.73c0,.55-.44,1-.99,1.01,0,0,0,0-.01,0ZM144.96,183.28h36.43v-9.73h-3.37c-.55,0-1-.45-1-1v-11.56c0-.55.45-1,1-1h4.06v-17.08h-36.43v18.08c0,.55-.45,1-1,1h-4.07v9.74h3.38c.55,0,1,.45,1,1v10.55Z"/>
    <path class="cls-8" d="M178.02,173.55h-23.92c-.55,0-1-.45-1-1s.45-1,1-1h23.92c.55,0,1,.45,1,1s-.45,1-1,1Z"/>
    <path class="cls-8" d="M158.32,161.99h-13.67c-.55,0-1-.45-1-1s.45-1,1-1h13.67c.55,0,1,.45,1,1s-.45,1-1,1Z"/>
    <path class="cls-8" d="M178.02,161.99h-10.41c-.55,0-1-.45-1-1s.45-1,1-1h10.41c.55,0,1,.45,1,1s-.45,1-1,1Z"/>
    <path class="cls-8" d="M183.08,154.12h-32.76c-.55,0-1-.45-1-1s.45-1,1-1h32.78c.55,0,1,.45,1,1s-.45,1-1,1h-.02Z"/>
    <path class="cls-8" d="M170.57,148.21h-25.34c-.55,0-1-.45-1-1s.45-1,1-1h25.34c.55,0,1,.45,1,1s-.45,1-1,1Z"/>
    <path class="cls-8" d="M169.58,166.51h-28.58c-.55,0-1-.45-1-1s.45-1,1-1h28.58c.55,0,1,.45,1,1s-.45,1-1,1h0Z"/>
    <path class="cls-8" d="M174.37,178.16h-30.41c-.55,0-1-.45-1-1s.45-1,1-1h30.41c.55,0,1,.45,1,1s-.45,1-1,1Z"/>
    <path class="cls-7" d="M20.32,112.56c-.55,0-1-.45-1-1v-3.57c0-.55.45-1,1-1s1,.45,1,1v3.56c0,.55-.44,1-.99,1.01,0,0,0,0-.01,0Z"/>
    <path class="cls-7" d="M20.32,120.28c-.55,0-1-.45-1-1v-3.55c0-.55.45-1,1-1s1,.45,1,1v3.55c0,.55-.45,1-1,1Z"/>
    <path class="cls-7" d="M25.97,114.64h-3.56c-.55,0-1-.45-1-1s.45-1,1-1h3.56c.55,0,1,.45,1,1s-.45,1-1,1Z"/>
    <path class="cls-7" d="M18.24,114.64h-3.55c-.55,0-1-.45-1-1s.45-1,1-1h3.55c.55,0,1,.45,1,1s-.45,1-1,1Z"/>
    <path class="cls-7" d="M165.77,114.64c-.55,0-1-.45-1-1v-3.55c0-.55.45-1,1-1s1,.45,1,1v3.55c0,.55-.45,1-1,1Z"/>
    <path class="cls-7" d="M165.77,122.37c-.55,0-1-.45-1-1v-3.55c0-.55.45-1,1-1s1,.45,1,1v3.55c0,.55-.45,1-1,1Z"/>
    <path class="cls-7" d="M171.42,116.73h-3.56c-.55,0-1-.45-1-1s.45-1,1-1h3.56c.55,0,1,.45,1,1s-.45,1-1,1Z"/>
    <path class="cls-7" d="M163.69,116.73h-3.56c-.55,0-1-.45-1-1s.45-1,1-1h3.56c.55,0,1,.45,1,1s-.45,1-1,1Z"/>
    <path class="cls-7" d="M175.32,82.28c-.55,0-1-.45-1-1v-3c0-.55.45-1,1-1s1,.45,1,1v3c0,.55-.45,1-1,1Z"/>
    <path class="cls-7" d="M175.32,88.79c-.55,0-1-.45-1-1v-3c0-.55.45-1,1-1s1,.45,1,1v3c0,.55-.45,1-1,1Z"/>
    <path class="cls-7" d="M180.03,84.04h-3c-.55,0-1-.45-1-1s.45-1,1-1h3c.55,0,1,.45,1,1s-.45,1-1,1Z"/>
    <path class="cls-7" d="M173.52,84.04h-3c-.55,0-1-.45-1-1s.45-1,1-1h3c.55,0,1,.45,1,1s-.45,1-1,1Z"/>
  </g>
</svg>